name Walk2.mot
datacolumns 19
datarows 10
range 4.10300000 4.11200000
endheader

                time	   L_ground_force_vx	   L_ground_force_vy	   L_ground_force_vz	   L_ground_force_px	   L_ground_force_py	   L_ground_force_pz	   R_ground_force_vx	   R_ground_force_vy	   R_ground_force_vz	   R_ground_force_px	   R_ground_force_py	   R_ground_force_pz	   L_ground_torque_x	   L_ground_torque_y	   L_ground_torque_z	   R_ground_torque_x	   R_ground_torque_y	   R_ground_torque_z	
          4.10300000	        -10.40374652	        942.03946684	        -56.35294078	          0.36679818	          0.00000000	          0.12370969	          0.00000000	          0.00000000	          0.00000000	          0.00000000	          0.00000000	          0.00000000	          0.00000000	          5.42032238	          0.00000000	          0.00000000	          0.00000000	          0.00000000	
          4.10400000	        -10.00297393	        940.73019787	        -56.18482305	          0.36702145	          0.00000000	          0.12368838	          0.00000000	          0.00000000	          0.00000000	          0.00000000	          0.00000000	          0.00000000	          0.00000000	          5.34584516	          0.00000000	          0.00000000	          0.00000000	          0.00000000	
          4.10500000	         -9.62339076	        939.46897895	        -56.05115342	          0.36721193	          0.00000000	          0.12365977	          0.00000000	          0.00000000	          0.00000000	          0.00000000	          0.00000000	          0.00000000	          0.00000000	          5.27455792	          0.00000000	          0.00000000	          0.00000000	          0.00000000	
          4.10600000	         -9.25602220	        938.23296304	        -55.94249052	          0.36737042	          0.00000000	          0.12363578	          0.00000000	          0.00000000	          0.00000000	          0.00000000	          0.00000000	          0.00000000	          0.00000000	          5.20288164	          0.00000000	          0.00000000	          0.00000000	          0.00000000	
          4.10700000	         -8.88758731	        936.98878197	        -55.84526705	          0.36751488	          0.00000000	          0.12362165	          0.00000000	          0.00000000	          0.00000000	          0.00000000	          0.00000000	          0.00000000	          0.00000000	          5.12695399	          0.00000000	          0.00000000	          0.00000000	          0.00000000	
          4.10800000	         -8.50887271	        935.69386825	        -55.74661084	          0.36766285	          0.00000000	          0.12361158	          0.00000000	          0.00000000	          0.00000000	          0.00000000	          0.00000000	          0.00000000	          0.00000000	          5.04838821	          0.00000000	          0.00000000	          0.00000000	          0.00000000	
          4.10900000	         -8.11425157	        934.31309824	        -55.64348565	          0.36782364	          0.00000000	          0.12359361	          0.00000000	          0.00000000	          0.00000000	          0.00000000	          0.00000000	          0.00000000	          0.00000000	          4.97344795	          0.00000000	          0.00000000	          0.00000000	          0.00000000	
          4.11000000	         -7.70315647	        932.85156751	        -55.54253327	          0.36799803	          0.00000000	          0.12356086	          0.00000000	          0.00000000	          0.00000000	          0.00000000	          0.00000000	          0.00000000	          0.00000000	          4.90502562	          0.00000000	          0.00000000	          0.00000000	          0.00000000	
          4.11100000	         -7.28391135	        931.35887617	        -55.45070967	          0.36817758	          0.00000000	          0.12351543	          0.00000000	          0.00000000	          0.00000000	          0.00000000	          0.00000000	          0.00000000	          0.00000000	          4.83978770	          0.00000000	          0.00000000	          0.00000000	          0.00000000	
          4.11200000	         -6.87191501	        929.87837626	        -55.37373710	          0.36834720	          0.00000000	          0.12346195	          0.00000000	          0.00000000	          0.00000000	          0.00000000	          0.00000000	          0.00000000	          0.00000000	          4.77290796	          0.00000000	          0.00000000	          0.00000000	          0.00000000	
